<?xml version="1.0" encoding="iso-8859-1"?>
<!-- Generator: Adobe Illustrator 16.0.0, SVG Export Plug-In . SVG Version: 6.00 Build 0)  -->
<!DOCTYPE svg PUBLIC "-//W3C//DTD SVG 1.1//EN" "http://www.w3.org/Graphics/SVG/1.1/DTD/svg11.dtd">
<svg version="1.1" id="Capa_1" xmlns="http://www.w3.org/2000/svg" xmlns:xlink="http://www.w3.org/1999/xlink" x="0px" y="0px"
	 width="41.123px" height="41.869px" viewBox="0 0 41.123 41.869" style="enable-background:new 0 0 41.123 41.869;"
	 xml:space="preserve">
<path d="M40.149,0.972c-1.294-1.296-3.396-1.296-4.693,0L27.563,9.12L10.002,3.355l-5.718,5.72l16.149,7.409L10.185,27.069
	c-0.253,0.252-0.486,0.505-0.692,0.756l-6.621-3.039L0,27.657l7.626,4.714l1.941,1.942l5.062,7.556l2.662-2.663L13.6,31.31
	c0.157-0.107,0.31-0.232,0.451-0.374l10.775-10.433l0.169,0.169l8.424,16.711l5.303-5.306L32.37,13.298l-0.05-0.051l7.829-7.582
	C41.447,4.371,41.447,2.268,40.149,0.972z"/>
<g>
</g>
<g>
</g>
<g>
</g>
<g>
</g>
<g>
</g>
<g>
</g>
<g>
</g>
<g>
</g>
<g>
</g>
<g>
</g>
<g>
</g>
<g>
</g>
<g>
</g>
<g>
</g>
<g>
</g>
</svg>
