<?xml version="1.0" encoding="iso-8859-1"?>
<!-- Generator: Adobe Illustrator 16.0.0, SVG Export Plug-In . SVG Version: 6.00 Build 0)  -->
<!DOCTYPE svg PUBLIC "-//W3C//DTD SVG 1.1//EN" "http://www.w3.org/Graphics/SVG/1.1/DTD/svg11.dtd">
<svg version="1.1" id="Capa_1" xmlns="http://www.w3.org/2000/svg" xmlns:xlink="http://www.w3.org/1999/xlink" x="0px" y="0px"
	 width="43.723px" height="33.447px" viewBox="0 0 43.723 33.447" style="enable-background:new 0 0 43.723 33.447;"
	 xml:space="preserve">
<path d="M43.723,9.435h-6.166l-0.351,3.325c-0.129-0.078-0.261-0.153-0.397-0.222V5.605C36.809,2.514,34.295,0,31.204,0H12.518
	C9.426,0,6.913,2.514,6.913,5.605v6.933c-0.138,0.067-0.271,0.144-0.397,0.222L6.165,9.435H0v3.177l6.199,0.354
	c-1.16,0.822-1.902,2.072-1.902,3.477v6.354c0,1.58,0.939,2.967,2.355,3.765v4.271c0,1.443,1.68,2.616,3.749,2.616
	s3.749-1.172,3.749-2.616v-3.55H28.93v3.55c0,1.443,1.678,2.616,3.748,2.616c2.071,0,3.748-1.172,3.748-2.616v-3.962
	c1.77-0.709,3-2.264,3-4.072v-6.354c0-1.404-0.744-2.654-1.903-3.477l6.2-0.354V9.435L43.723,9.435z M9.154,5.605
	c0-1.855,1.509-3.364,3.362-3.364h18.687c1.854,0,3.364,1.509,3.364,3.364v6.365c-0.096-0.005-0.188-0.013-0.283-0.013H9.438
	c-0.097,0-0.189,0.008-0.283,0.013V5.605L9.154,5.605z M28.027,20.18v1.494H16.442V20.18H28.027z M8.033,22.309v-4.913h6.766v4.913
	H8.033z M15.694,25.973c-0.519,0-0.937-0.418-0.937-0.936c0-0.517,0.418-0.935,0.937-0.935c0.517,0,0.934,0.418,0.934,0.935
	S16.211,25.973,15.694,25.973z M28.961,25.973c-0.517,0-0.934-0.418-0.934-0.936c0-0.517,0.417-0.935,0.934-0.935
	s0.936,0.418,0.936,0.935C29.896,25.554,29.478,25.973,28.961,25.973z M36.623,22.309h-6.766v-4.913h6.766V22.309z"/>
<g>
</g>
<g>
</g>
<g>
</g>
<g>
</g>
<g>
</g>
<g>
</g>
<g>
</g>
<g>
</g>
<g>
</g>
<g>
</g>
<g>
</g>
<g>
</g>
<g>
</g>
<g>
</g>
<g>
</g>
</svg>
